<mxfile host="app.diagrams.net" agent="Mozilla/5.0 (Windows NT 10.0; Win64; x64) AppleWebKit/537.36 (KHTML, like Gecko) Chrome/131.0.0.0 Safari/537.36 Edg/131.0.0.0" version="26.0.5">
  <diagram name="1 oldal" id="WsD89_rvut9KYEznZF7w">
    <mxGraphModel dx="1042" dy="565" grid="1" gridSize="10" guides="1" tooltips="1" connect="1" arrows="1" fold="1" page="1" pageScale="1" pageWidth="827" pageHeight="1169" math="0" shadow="0">
      <root>
        <mxCell id="0" />
        <mxCell id="1" parent="0" />
        <mxCell id="0KHHT6T7kImk7eiQCbv7-1" value="" style="shape=cube;whiteSpace=wrap;html=1;boundedLbl=1;backgroundOutline=1;darkOpacity=0.05;darkOpacity2=0.1;gradientColor=none;" vertex="1" parent="1">
          <mxGeometry x="190" y="340" width="132.5" height="140" as="geometry" />
        </mxCell>
        <mxCell id="0KHHT6T7kImk7eiQCbv7-2" value="" style="shape=cube;whiteSpace=wrap;html=1;boundedLbl=1;backgroundOutline=1;darkOpacity=0.05;darkOpacity2=0.1;size=30;" vertex="1" parent="1">
          <mxGeometry x="212.5" y="520" width="110" height="110" as="geometry" />
        </mxCell>
        <mxCell id="0KHHT6T7kImk7eiQCbv7-4" value="" style="shape=cube;whiteSpace=wrap;html=1;boundedLbl=1;backgroundOutline=1;darkOpacity=0.05;darkOpacity2=0.1;size=50;fillColor=#fff2cc;strokeColor=#d6b656;" vertex="1" parent="1">
          <mxGeometry x="252.5" y="840" width="70" height="70" as="geometry" />
        </mxCell>
        <mxCell id="0KHHT6T7kImk7eiQCbv7-5" value="" style="shape=cube;whiteSpace=wrap;html=1;boundedLbl=1;backgroundOutline=1;darkOpacity=0.05;darkOpacity2=0.1;size=40;" vertex="1" parent="1">
          <mxGeometry x="242.5" y="690" width="80" height="80" as="geometry" />
        </mxCell>
        <mxCell id="0KHHT6T7kImk7eiQCbv7-10" value="" style="endArrow=classic;html=1;rounded=0;entryX=0;entryY=0;entryDx=0;entryDy=60;entryPerimeter=0;" edge="1" parent="1" source="0KHHT6T7kImk7eiQCbv7-27" target="0KHHT6T7kImk7eiQCbv7-1">
          <mxGeometry width="50" height="50" relative="1" as="geometry">
            <mxPoint x="10" y="400" as="sourcePoint" />
            <mxPoint x="87" y="515" as="targetPoint" />
          </mxGeometry>
        </mxCell>
        <mxCell id="0KHHT6T7kImk7eiQCbv7-12" value="" style="rounded=1;whiteSpace=wrap;html=1;fillColor=#ffe6cc;strokeColor=#d79b00;" vertex="1" parent="1">
          <mxGeometry x="70" y="90" width="180" height="190" as="geometry" />
        </mxCell>
        <mxCell id="0KHHT6T7kImk7eiQCbv7-13" value="" style="endArrow=classic;html=1;rounded=0;fillColor=#ffe6cc;strokeColor=#d79b00;" edge="1" parent="1">
          <mxGeometry width="50" height="50" relative="1" as="geometry">
            <mxPoint x="30" y="400" as="sourcePoint" />
            <mxPoint x="70" y="160" as="targetPoint" />
            <Array as="points">
              <mxPoint x="30" y="160" />
            </Array>
          </mxGeometry>
        </mxCell>
        <mxCell id="0KHHT6T7kImk7eiQCbv7-14" value="Attention" style="text;html=1;align=center;verticalAlign=middle;whiteSpace=wrap;rounded=0;strokeWidth=1;fontStyle=0;fontSize=14;" vertex="1" parent="1">
          <mxGeometry x="130" y="90" width="60" height="30" as="geometry" />
        </mxCell>
        <mxCell id="0KHHT6T7kImk7eiQCbv7-15" value="AVGPool2D" style="rounded=1;whiteSpace=wrap;html=1;fillColor=#fff2cc;strokeColor=#d6b656;" vertex="1" parent="1">
          <mxGeometry x="100" y="130" width="120" height="20" as="geometry" />
        </mxCell>
        <mxCell id="0KHHT6T7kImk7eiQCbv7-16" value="Conv2D" style="rounded=1;whiteSpace=wrap;html=1;fillColor=#fff2cc;strokeColor=#d6b656;" vertex="1" parent="1">
          <mxGeometry x="100" y="160" width="120" height="20" as="geometry" />
        </mxCell>
        <mxCell id="0KHHT6T7kImk7eiQCbv7-17" value="Conv2D" style="rounded=1;whiteSpace=wrap;html=1;fillColor=#fff2cc;strokeColor=#d6b656;" vertex="1" parent="1">
          <mxGeometry x="100" y="220" width="120" height="20" as="geometry" />
        </mxCell>
        <mxCell id="0KHHT6T7kImk7eiQCbv7-18" value="ReLU" style="rounded=1;whiteSpace=wrap;html=1;fillColor=#fff2cc;strokeColor=#d6b656;" vertex="1" parent="1">
          <mxGeometry x="100" y="190" width="120" height="20" as="geometry" />
        </mxCell>
        <mxCell id="0KHHT6T7kImk7eiQCbv7-19" value="Softmax" style="rounded=1;whiteSpace=wrap;html=1;fillColor=#fff2cc;strokeColor=#d6b656;" vertex="1" parent="1">
          <mxGeometry x="100" y="250" width="120" height="20" as="geometry" />
        </mxCell>
        <mxCell id="0KHHT6T7kImk7eiQCbv7-22" value="" style="endArrow=classic;html=1;rounded=0;exitX=1;exitY=0.5;exitDx=0;exitDy=0;fillColor=#ffe6cc;strokeColor=#d79b00;entryX=0;entryY=0.5;entryDx=0;entryDy=0;" edge="1" parent="1" source="0KHHT6T7kImk7eiQCbv7-19" target="0KHHT6T7kImk7eiQCbv7-23">
          <mxGeometry width="50" height="50" relative="1" as="geometry">
            <mxPoint x="280" y="270" as="sourcePoint" />
            <mxPoint x="330" y="200" as="targetPoint" />
            <Array as="points">
              <mxPoint x="280" y="260" />
              <mxPoint x="280" y="115" />
            </Array>
          </mxGeometry>
        </mxCell>
        <mxCell id="0KHHT6T7kImk7eiQCbv7-23" value="" style="rounded=0;whiteSpace=wrap;html=1;fillColor=#ffe6cc;strokeColor=#d79b00;" vertex="1" parent="1">
          <mxGeometry x="330" y="100" width="220" height="30" as="geometry" />
        </mxCell>
        <mxCell id="0KHHT6T7kImk7eiQCbv7-24" value="w&lt;sub&gt;1&lt;/sub&gt;&amp;nbsp; &amp;nbsp; &amp;nbsp; &amp;nbsp;w&lt;sub&gt;2&lt;/sub&gt;&amp;nbsp; &amp;nbsp; &amp;nbsp; &amp;nbsp; w&lt;sub&gt;3&lt;/sub&gt; ....&amp;nbsp; &amp;nbsp; &amp;nbsp; &amp;nbsp; &amp;nbsp; &amp;nbsp; &amp;nbsp; &amp;nbsp; &amp;nbsp; &amp;nbsp; &amp;nbsp;w&lt;sub&gt;n&lt;/sub&gt;" style="text;html=1;align=left;verticalAlign=middle;whiteSpace=wrap;rounded=0;" vertex="1" parent="1">
          <mxGeometry x="340" y="100" width="200" height="30" as="geometry" />
        </mxCell>
        <mxCell id="0KHHT6T7kImk7eiQCbv7-28" value="" style="endArrow=classic;html=1;rounded=0;entryX=0;entryY=0.5;entryDx=0;entryDy=0;" edge="1" parent="1" target="0KHHT6T7kImk7eiQCbv7-27">
          <mxGeometry width="50" height="50" relative="1" as="geometry">
            <mxPoint x="10" y="400" as="sourcePoint" />
            <mxPoint x="190" y="400" as="targetPoint" />
          </mxGeometry>
        </mxCell>
        <mxCell id="0KHHT6T7kImk7eiQCbv7-27" value="Conv" style="rounded=0;whiteSpace=wrap;html=1;fillColor=#f5f5f5;fontColor=#333333;strokeColor=#666666;" vertex="1" parent="1">
          <mxGeometry x="70" y="370" width="70" height="60" as="geometry" />
        </mxCell>
        <mxCell id="0KHHT6T7kImk7eiQCbv7-31" value="Conv&lt;sub&gt;v1&amp;nbsp; &lt;/sub&gt;Conv&lt;sub&gt;v2&amp;nbsp; &lt;/sub&gt;Conv&lt;sub&gt;v3&lt;/sub&gt; .....&amp;nbsp; &amp;nbsp; &amp;nbsp; &amp;nbsp; Conv&lt;sub&gt;vn&lt;/sub&gt;" style="rounded=0;whiteSpace=wrap;html=1;align=left;fillColor=#ffe6cc;strokeColor=#d79b00;" vertex="1" parent="1">
          <mxGeometry x="330" y="160" width="220" height="30" as="geometry" />
        </mxCell>
        <mxCell id="0KHHT6T7kImk7eiQCbv7-36" value="&lt;font&gt;*&lt;/font&gt;" style="text;html=1;align=center;verticalAlign=middle;whiteSpace=wrap;rounded=0;fontSize=25;" vertex="1" parent="1">
          <mxGeometry x="500" y="135" width="60" height="30" as="geometry" />
        </mxCell>
        <mxCell id="0KHHT6T7kImk7eiQCbv7-37" value="&lt;font&gt;*&lt;/font&gt;" style="text;html=1;align=center;verticalAlign=middle;whiteSpace=wrap;rounded=0;fontSize=25;" vertex="1" parent="1">
          <mxGeometry x="322.5" y="140" width="60" height="20" as="geometry" />
        </mxCell>
        <mxCell id="0KHHT6T7kImk7eiQCbv7-38" value="&lt;font&gt;*&lt;/font&gt;" style="text;html=1;align=center;verticalAlign=middle;whiteSpace=wrap;rounded=0;fontSize=25;" vertex="1" parent="1">
          <mxGeometry x="360" y="135" width="60" height="30" as="geometry" />
        </mxCell>
        <mxCell id="0KHHT6T7kImk7eiQCbv7-39" value="&lt;font&gt;*&lt;/font&gt;" style="text;html=1;align=center;verticalAlign=middle;whiteSpace=wrap;rounded=0;fontSize=25;" vertex="1" parent="1">
          <mxGeometry x="400" y="135" width="60" height="30" as="geometry" />
        </mxCell>
        <mxCell id="0KHHT6T7kImk7eiQCbv7-40" value="" style="shape=orEllipse;perimeter=ellipsePerimeter;whiteSpace=wrap;html=1;backgroundOutline=1;fillColor=#ffe6cc;strokeColor=#d79b00;" vertex="1" parent="1">
          <mxGeometry x="410" y="270" width="40" height="40" as="geometry" />
        </mxCell>
        <mxCell id="0KHHT6T7kImk7eiQCbv7-41" value="" style="endArrow=classic;html=1;rounded=0;exitX=0.053;exitY=1;exitDx=0;exitDy=0;exitPerimeter=0;entryX=0.25;entryY=0;entryDx=0;entryDy=0;entryPerimeter=0;fillColor=#ffe6cc;strokeColor=#d79b00;dashed=1;" edge="1" parent="1" source="0KHHT6T7kImk7eiQCbv7-31" target="0KHHT6T7kImk7eiQCbv7-40">
          <mxGeometry width="50" height="50" relative="1" as="geometry">
            <mxPoint x="350" y="270" as="sourcePoint" />
            <mxPoint x="400" y="220" as="targetPoint" />
          </mxGeometry>
        </mxCell>
        <mxCell id="0KHHT6T7kImk7eiQCbv7-42" value="" style="endArrow=classic;html=1;rounded=0;exitX=0.25;exitY=1;exitDx=0;exitDy=0;entryX=0.5;entryY=0;entryDx=0;entryDy=0;fillColor=#ffe6cc;strokeColor=#d79b00;dashed=1;" edge="1" parent="1" source="0KHHT6T7kImk7eiQCbv7-31" target="0KHHT6T7kImk7eiQCbv7-40">
          <mxGeometry width="50" height="50" relative="1" as="geometry">
            <mxPoint x="350" y="270" as="sourcePoint" />
            <mxPoint x="400" y="220" as="targetPoint" />
          </mxGeometry>
        </mxCell>
        <mxCell id="0KHHT6T7kImk7eiQCbv7-43" value="" style="endArrow=classic;html=1;rounded=0;exitX=0.456;exitY=1;exitDx=0;exitDy=0;exitPerimeter=0;fillColor=#ffe6cc;strokeColor=#d79b00;dashed=1;" edge="1" parent="1" source="0KHHT6T7kImk7eiQCbv7-31">
          <mxGeometry width="50" height="50" relative="1" as="geometry">
            <mxPoint x="433" y="210" as="sourcePoint" />
            <mxPoint x="433" y="270" as="targetPoint" />
          </mxGeometry>
        </mxCell>
        <mxCell id="0KHHT6T7kImk7eiQCbv7-44" value="" style="endArrow=classic;html=1;rounded=0;exitX=0.889;exitY=1;exitDx=0;exitDy=0;exitPerimeter=0;entryX=1;entryY=0;entryDx=0;entryDy=0;fillColor=#ffe6cc;strokeColor=#d79b00;dashed=1;" edge="1" parent="1" source="0KHHT6T7kImk7eiQCbv7-31" target="0KHHT6T7kImk7eiQCbv7-40">
          <mxGeometry width="50" height="50" relative="1" as="geometry">
            <mxPoint x="350" y="370" as="sourcePoint" />
            <mxPoint x="490" y="250" as="targetPoint" />
          </mxGeometry>
        </mxCell>
        <mxCell id="0KHHT6T7kImk7eiQCbv7-45" value="" style="endArrow=classic;html=1;rounded=0;exitX=0.5;exitY=1;exitDx=0;exitDy=0;entryX=0.5;entryY=0;entryDx=0;entryDy=0;fillColor=#ffe6cc;strokeColor=#d79b00;dashed=1;" edge="1" parent="1" source="0KHHT6T7kImk7eiQCbv7-40" target="0KHHT6T7kImk7eiQCbv7-27">
          <mxGeometry width="50" height="50" relative="1" as="geometry">
            <mxPoint x="350" y="370" as="sourcePoint" />
            <mxPoint x="90" y="320" as="targetPoint" />
            <Array as="points">
              <mxPoint x="430" y="320" />
              <mxPoint x="105" y="320" />
            </Array>
          </mxGeometry>
        </mxCell>
        <mxCell id="0KHHT6T7kImk7eiQCbv7-46" value="" style="endArrow=classic;html=1;rounded=0;entryX=0;entryY=0;entryDx=0;entryDy=120;entryPerimeter=0;exitX=0;exitY=0;exitDx=20;exitDy=140;exitPerimeter=0;" edge="1" parent="1" source="0KHHT6T7kImk7eiQCbv7-1" target="0KHHT6T7kImk7eiQCbv7-1">
          <mxGeometry width="50" height="50" relative="1" as="geometry">
            <mxPoint x="380" y="370" as="sourcePoint" />
            <mxPoint x="430" y="320" as="targetPoint" />
          </mxGeometry>
        </mxCell>
        <mxCell id="0KHHT6T7kImk7eiQCbv7-47" value="" style="endArrow=classic;html=1;rounded=0;exitX=0;exitY=0;exitDx=20;exitDy=140;exitPerimeter=0;entryX=1;entryY=1;entryDx=0;entryDy=0;entryPerimeter=0;" edge="1" parent="1" source="0KHHT6T7kImk7eiQCbv7-1" target="0KHHT6T7kImk7eiQCbv7-1">
          <mxGeometry width="50" height="50" relative="1" as="geometry">
            <mxPoint x="290" y="500" as="sourcePoint" />
            <mxPoint x="320" y="510" as="targetPoint" />
          </mxGeometry>
        </mxCell>
        <mxCell id="0KHHT6T7kImk7eiQCbv7-48" value="" style="endArrow=classic;html=1;rounded=0;exitX=1;exitY=1;exitDx=0;exitDy=0;exitPerimeter=0;entryX=0;entryY=0;entryDx=132.5;entryDy=20;entryPerimeter=0;" edge="1" parent="1" source="0KHHT6T7kImk7eiQCbv7-1" target="0KHHT6T7kImk7eiQCbv7-1">
          <mxGeometry width="50" height="50" relative="1" as="geometry">
            <mxPoint x="380" y="370" as="sourcePoint" />
            <mxPoint x="430" y="320" as="targetPoint" />
          </mxGeometry>
        </mxCell>
        <mxCell id="0KHHT6T7kImk7eiQCbv7-54" value="" style="endArrow=classic;html=1;rounded=0;exitX=0;exitY=0;exitDx=30;exitDy=110;exitPerimeter=0;entryX=1;entryY=1;entryDx=0;entryDy=0;entryPerimeter=0;" edge="1" parent="1" source="0KHHT6T7kImk7eiQCbv7-2" target="0KHHT6T7kImk7eiQCbv7-2">
          <mxGeometry width="50" height="50" relative="1" as="geometry">
            <mxPoint x="380" y="470" as="sourcePoint" />
            <mxPoint x="430" y="420" as="targetPoint" />
          </mxGeometry>
        </mxCell>
        <mxCell id="0KHHT6T7kImk7eiQCbv7-55" value="" style="endArrow=classic;html=1;rounded=0;exitX=0;exitY=0;exitDx=30;exitDy=110;exitPerimeter=0;entryX=0;entryY=0;entryDx=0;entryDy=80;entryPerimeter=0;" edge="1" parent="1" source="0KHHT6T7kImk7eiQCbv7-2" target="0KHHT6T7kImk7eiQCbv7-2">
          <mxGeometry width="50" height="50" relative="1" as="geometry">
            <mxPoint x="380" y="470" as="sourcePoint" />
            <mxPoint x="430" y="420" as="targetPoint" />
          </mxGeometry>
        </mxCell>
        <mxCell id="0KHHT6T7kImk7eiQCbv7-56" value="" style="endArrow=classic;html=1;rounded=0;exitX=1;exitY=1;exitDx=0;exitDy=0;exitPerimeter=0;entryX=0;entryY=0;entryDx=110;entryDy=30;entryPerimeter=0;" edge="1" parent="1" source="0KHHT6T7kImk7eiQCbv7-2" target="0KHHT6T7kImk7eiQCbv7-2">
          <mxGeometry width="50" height="50" relative="1" as="geometry">
            <mxPoint x="380" y="470" as="sourcePoint" />
            <mxPoint x="430" y="420" as="targetPoint" />
          </mxGeometry>
        </mxCell>
        <mxCell id="0KHHT6T7kImk7eiQCbv7-57" value="" style="endArrow=classic;html=1;rounded=0;exitX=0;exitY=0;exitDx=40;exitDy=80;exitPerimeter=0;entryX=0;entryY=0;entryDx=0;entryDy=40;entryPerimeter=0;" edge="1" parent="1" source="0KHHT6T7kImk7eiQCbv7-5" target="0KHHT6T7kImk7eiQCbv7-5">
          <mxGeometry width="50" height="50" relative="1" as="geometry">
            <mxPoint x="380" y="470" as="sourcePoint" />
            <mxPoint x="430" y="420" as="targetPoint" />
          </mxGeometry>
        </mxCell>
        <mxCell id="0KHHT6T7kImk7eiQCbv7-58" value="" style="endArrow=classic;html=1;rounded=0;exitX=0;exitY=0;exitDx=40;exitDy=80;exitPerimeter=0;entryX=1;entryY=1;entryDx=0;entryDy=0;entryPerimeter=0;" edge="1" parent="1" source="0KHHT6T7kImk7eiQCbv7-5" target="0KHHT6T7kImk7eiQCbv7-5">
          <mxGeometry width="50" height="50" relative="1" as="geometry">
            <mxPoint x="380" y="670" as="sourcePoint" />
            <mxPoint x="430" y="620" as="targetPoint" />
          </mxGeometry>
        </mxCell>
        <mxCell id="0KHHT6T7kImk7eiQCbv7-59" value="" style="endArrow=classic;html=1;rounded=0;entryX=0;entryY=0;entryDx=80;entryDy=40;entryPerimeter=0;" edge="1" parent="1" target="0KHHT6T7kImk7eiQCbv7-5">
          <mxGeometry width="50" height="50" relative="1" as="geometry">
            <mxPoint x="323" y="770" as="sourcePoint" />
            <mxPoint x="430" y="620" as="targetPoint" />
          </mxGeometry>
        </mxCell>
        <mxCell id="0KHHT6T7kImk7eiQCbv7-60" value="" style="endArrow=classic;html=1;rounded=0;exitX=1;exitY=1;exitDx=0;exitDy=0;exitPerimeter=0;entryX=0;entryY=0;entryDx=70;entryDy=50;entryPerimeter=0;" edge="1" parent="1" source="0KHHT6T7kImk7eiQCbv7-4" target="0KHHT6T7kImk7eiQCbv7-4">
          <mxGeometry width="50" height="50" relative="1" as="geometry">
            <mxPoint x="380" y="770" as="sourcePoint" />
            <mxPoint x="430" y="720" as="targetPoint" />
          </mxGeometry>
        </mxCell>
        <mxCell id="0KHHT6T7kImk7eiQCbv7-61" value="" style="endArrow=classic;html=1;rounded=0;exitX=0;exitY=0;exitDx=50;exitDy=70;exitPerimeter=0;entryX=0;entryY=0;entryDx=0;entryDy=20;entryPerimeter=0;" edge="1" parent="1" source="0KHHT6T7kImk7eiQCbv7-4" target="0KHHT6T7kImk7eiQCbv7-4">
          <mxGeometry width="50" height="50" relative="1" as="geometry">
            <mxPoint x="380" y="770" as="sourcePoint" />
            <mxPoint x="410" y="850" as="targetPoint" />
          </mxGeometry>
        </mxCell>
        <mxCell id="0KHHT6T7kImk7eiQCbv7-62" value="" style="endArrow=classic;html=1;rounded=0;exitX=0;exitY=0;exitDx=50;exitDy=70;exitPerimeter=0;" edge="1" parent="1" source="0KHHT6T7kImk7eiQCbv7-4">
          <mxGeometry width="50" height="50" relative="1" as="geometry">
            <mxPoint x="380" y="770" as="sourcePoint" />
            <mxPoint x="320" y="910" as="targetPoint" />
          </mxGeometry>
        </mxCell>
        <mxCell id="0KHHT6T7kImk7eiQCbv7-63" value="C" style="text;html=1;align=center;verticalAlign=middle;whiteSpace=wrap;rounded=0;fontStyle=1" vertex="1" parent="1">
          <mxGeometry x="152.5" y="460" width="60" height="30" as="geometry" />
        </mxCell>
        <mxCell id="0KHHT6T7kImk7eiQCbv7-68" value="2C" style="text;html=1;align=center;verticalAlign=middle;whiteSpace=wrap;rounded=0;fontStyle=1" vertex="1" parent="1">
          <mxGeometry x="182.5" y="610" width="60" height="30" as="geometry" />
        </mxCell>
        <mxCell id="0KHHT6T7kImk7eiQCbv7-69" value="4C" style="text;html=1;align=center;verticalAlign=middle;whiteSpace=wrap;rounded=0;fontStyle=1" vertex="1" parent="1">
          <mxGeometry x="212.5" y="740" width="60" height="30" as="geometry" />
        </mxCell>
        <mxCell id="0KHHT6T7kImk7eiQCbv7-70" value="8C" style="text;html=1;align=center;verticalAlign=middle;whiteSpace=wrap;rounded=0;fontStyle=1" vertex="1" parent="1">
          <mxGeometry x="242.5" y="880" width="60" height="30" as="geometry" />
        </mxCell>
        <mxCell id="0KHHT6T7kImk7eiQCbv7-71" value="W2" style="text;html=1;align=center;verticalAlign=middle;whiteSpace=wrap;rounded=0;fontStyle=1" vertex="1" parent="1">
          <mxGeometry x="242.5" y="480" width="60" height="30" as="geometry" />
        </mxCell>
        <mxCell id="0KHHT6T7kImk7eiQCbv7-72" value="W4" style="text;html=1;align=center;verticalAlign=middle;whiteSpace=wrap;rounded=0;fontStyle=1" vertex="1" parent="1">
          <mxGeometry x="257.5" y="630" width="60" height="30" as="geometry" />
        </mxCell>
        <mxCell id="0KHHT6T7kImk7eiQCbv7-73" value="W8" style="text;html=1;align=center;verticalAlign=middle;whiteSpace=wrap;rounded=0;fontStyle=1" vertex="1" parent="1">
          <mxGeometry x="270" y="770" width="60" height="30" as="geometry" />
        </mxCell>
        <mxCell id="0KHHT6T7kImk7eiQCbv7-74" value="W16" style="text;html=1;align=center;verticalAlign=middle;whiteSpace=wrap;rounded=0;fontStyle=1" vertex="1" parent="1">
          <mxGeometry x="280" y="910" width="60" height="30" as="geometry" />
        </mxCell>
        <mxCell id="0KHHT6T7kImk7eiQCbv7-76" value="H2" style="text;html=1;align=center;verticalAlign=middle;whiteSpace=wrap;rounded=0;fontStyle=1" vertex="1" parent="1">
          <mxGeometry x="310" y="450" width="60" height="30" as="geometry" />
        </mxCell>
        <mxCell id="0KHHT6T7kImk7eiQCbv7-77" value="H4" style="text;html=1;align=center;verticalAlign=middle;whiteSpace=wrap;rounded=0;fontStyle=1" vertex="1" parent="1">
          <mxGeometry x="310" y="610" width="60" height="30" as="geometry" />
        </mxCell>
        <mxCell id="0KHHT6T7kImk7eiQCbv7-79" value="H8" style="text;html=1;align=center;verticalAlign=middle;whiteSpace=wrap;rounded=0;fontStyle=1" vertex="1" parent="1">
          <mxGeometry x="310" y="750" width="60" height="30" as="geometry" />
        </mxCell>
        <mxCell id="0KHHT6T7kImk7eiQCbv7-80" value="H16&lt;div&gt;&lt;br&gt;&lt;/div&gt;" style="text;html=1;align=center;verticalAlign=middle;whiteSpace=wrap;rounded=0;fontStyle=1" vertex="1" parent="1">
          <mxGeometry x="310" y="900" width="60" height="30" as="geometry" />
        </mxCell>
        <mxCell id="0KHHT6T7kImk7eiQCbv7-81" value="" style="endArrow=classic;html=1;rounded=0;exitX=0.25;exitY=0;exitDx=0;exitDy=0;entryX=0.467;entryY=0.234;entryDx=0;entryDy=0;entryPerimeter=0;" edge="1" parent="1" source="0KHHT6T7kImk7eiQCbv7-73" target="0KHHT6T7kImk7eiQCbv7-4">
          <mxGeometry width="50" height="50" relative="1" as="geometry">
            <mxPoint x="380" y="670" as="sourcePoint" />
            <mxPoint x="430" y="620" as="targetPoint" />
          </mxGeometry>
        </mxCell>
        <mxCell id="0KHHT6T7kImk7eiQCbv7-82" value="" style="endArrow=classic;html=1;rounded=0;exitX=0.25;exitY=0;exitDx=0;exitDy=0;entryX=0.384;entryY=0.01;entryDx=0;entryDy=0;entryPerimeter=0;" edge="1" parent="1" source="0KHHT6T7kImk7eiQCbv7-72" target="0KHHT6T7kImk7eiQCbv7-5">
          <mxGeometry width="50" height="50" relative="1" as="geometry">
            <mxPoint x="380" y="570" as="sourcePoint" />
            <mxPoint x="430" y="520" as="targetPoint" />
          </mxGeometry>
        </mxCell>
        <mxCell id="0KHHT6T7kImk7eiQCbv7-83" value="" style="endArrow=classic;html=1;rounded=0;exitX=0.152;exitY=0.013;exitDx=0;exitDy=0;exitPerimeter=0;entryX=0;entryY=0;entryDx=40;entryDy=0;entryPerimeter=0;" edge="1" parent="1" source="0KHHT6T7kImk7eiQCbv7-71" target="0KHHT6T7kImk7eiQCbv7-2">
          <mxGeometry width="50" height="50" relative="1" as="geometry">
            <mxPoint x="380" y="470" as="sourcePoint" />
            <mxPoint x="250" y="530" as="targetPoint" />
          </mxGeometry>
        </mxCell>
        <mxCell id="0KHHT6T7kImk7eiQCbv7-84" value="Conv" style="text;html=1;align=center;verticalAlign=middle;whiteSpace=wrap;rounded=0;fontSize=15;" vertex="1" parent="1">
          <mxGeometry x="197.5" y="490" width="60" height="30" as="geometry" />
        </mxCell>
        <mxCell id="0KHHT6T7kImk7eiQCbv7-85" value="Conv" style="text;html=1;align=center;verticalAlign=middle;whiteSpace=wrap;rounded=0;fontSize=15;" vertex="1" parent="1">
          <mxGeometry x="210" y="650" width="60" height="30" as="geometry" />
        </mxCell>
        <mxCell id="0KHHT6T7kImk7eiQCbv7-86" value="Conv" style="text;html=1;align=center;verticalAlign=middle;whiteSpace=wrap;rounded=0;fontSize=15;" vertex="1" parent="1">
          <mxGeometry x="226.25" y="790" width="60" height="30" as="geometry" />
        </mxCell>
        <mxCell id="0KHHT6T7kImk7eiQCbv7-87" value="" style="shape=cube;whiteSpace=wrap;html=1;boundedLbl=1;backgroundOutline=1;darkOpacity=0.05;darkOpacity2=0.1;gradientColor=none;size=30;" vertex="1" parent="1">
          <mxGeometry x="480" y="340" width="120" height="120" as="geometry" />
        </mxCell>
        <mxCell id="0KHHT6T7kImk7eiQCbv7-91" value="" style="shape=cube;whiteSpace=wrap;html=1;boundedLbl=1;backgroundOutline=1;darkOpacity=0.05;darkOpacity2=0.1;gradientColor=none;size=30;" vertex="1" parent="1">
          <mxGeometry x="480" y="510" width="120" height="120" as="geometry" />
        </mxCell>
        <mxCell id="0KHHT6T7kImk7eiQCbv7-92" value="" style="shape=cube;whiteSpace=wrap;html=1;boundedLbl=1;backgroundOutline=1;darkOpacity=0.05;darkOpacity2=0.1;gradientColor=none;size=30;" vertex="1" parent="1">
          <mxGeometry x="480" y="660" width="120" height="120" as="geometry" />
        </mxCell>
        <mxCell id="0KHHT6T7kImk7eiQCbv7-93" value="" style="shape=cube;whiteSpace=wrap;html=1;boundedLbl=1;backgroundOutline=1;darkOpacity=0.05;darkOpacity2=0.1;size=30;fillColor=#ffe6cc;strokeColor=#d79b00;" vertex="1" parent="1">
          <mxGeometry x="480" y="815" width="120" height="120" as="geometry" />
        </mxCell>
        <mxCell id="0KHHT6T7kImk7eiQCbv7-94" value="" style="endArrow=classic;html=1;rounded=0;entryX=0.017;entryY=0.597;entryDx=0;entryDy=0;entryPerimeter=0;" edge="1" parent="1" target="0KHHT6T7kImk7eiQCbv7-87">
          <mxGeometry width="50" height="50" relative="1" as="geometry">
            <mxPoint x="320" y="412" as="sourcePoint" />
            <mxPoint x="430" y="650" as="targetPoint" />
          </mxGeometry>
        </mxCell>
        <mxCell id="0KHHT6T7kImk7eiQCbv7-95" value="" style="endArrow=classic;html=1;rounded=0;" edge="1" parent="1">
          <mxGeometry width="50" height="50" relative="1" as="geometry">
            <mxPoint x="320" y="580" as="sourcePoint" />
            <mxPoint x="480" y="580" as="targetPoint" />
          </mxGeometry>
        </mxCell>
        <mxCell id="0KHHT6T7kImk7eiQCbv7-96" value="" style="endArrow=classic;html=1;rounded=0;entryX=0;entryY=0;entryDx=0;entryDy=90;entryPerimeter=0;" edge="1" parent="1" target="0KHHT6T7kImk7eiQCbv7-92">
          <mxGeometry width="50" height="50" relative="1" as="geometry">
            <mxPoint x="320" y="750" as="sourcePoint" />
            <mxPoint x="430" y="650" as="targetPoint" />
          </mxGeometry>
        </mxCell>
        <mxCell id="0KHHT6T7kImk7eiQCbv7-97" value="" style="endArrow=classic;html=1;rounded=0;entryX=0;entryY=0.458;entryDx=0;entryDy=0;entryPerimeter=0;exitX=0.679;exitY=0.429;exitDx=0;exitDy=0;exitPerimeter=0;fillColor=#ffe6cc;strokeColor=#d79b00;" edge="1" parent="1" source="0KHHT6T7kImk7eiQCbv7-4" target="0KHHT6T7kImk7eiQCbv7-93">
          <mxGeometry width="50" height="50" relative="1" as="geometry">
            <mxPoint x="320" y="874" as="sourcePoint" />
            <mxPoint x="430" y="850" as="targetPoint" />
          </mxGeometry>
        </mxCell>
        <mxCell id="0KHHT6T7kImk7eiQCbv7-98" value="DeConv" style="text;html=1;align=center;verticalAlign=middle;whiteSpace=wrap;rounded=0;fontSize=14;" vertex="1" parent="1">
          <mxGeometry x="382.5" y="420" width="60" height="30" as="geometry" />
        </mxCell>
        <mxCell id="0KHHT6T7kImk7eiQCbv7-99" value="DeConv" style="text;html=1;align=center;verticalAlign=middle;whiteSpace=wrap;rounded=0;fontSize=14;" vertex="1" parent="1">
          <mxGeometry x="384" y="580" width="60" height="30" as="geometry" />
        </mxCell>
        <mxCell id="0KHHT6T7kImk7eiQCbv7-100" value="DeConv" style="text;html=1;align=center;verticalAlign=middle;whiteSpace=wrap;rounded=0;fontSize=14;" vertex="1" parent="1">
          <mxGeometry x="384" y="750" width="60" height="30" as="geometry" />
        </mxCell>
        <mxCell id="0KHHT6T7kImk7eiQCbv7-101" value="DeConv" style="text;html=1;align=center;verticalAlign=middle;whiteSpace=wrap;rounded=0;fontSize=14;" vertex="1" parent="1">
          <mxGeometry x="382.5" y="870" width="60" height="30" as="geometry" />
        </mxCell>
        <mxCell id="0KHHT6T7kImk7eiQCbv7-104" value="" style="endArrow=classic;html=1;rounded=0;exitX=0;exitY=0;exitDx=120;exitDy=75;exitPerimeter=0;" edge="1" parent="1" source="0KHHT6T7kImk7eiQCbv7-91">
          <mxGeometry width="50" height="50" relative="1" as="geometry">
            <mxPoint x="380" y="700" as="sourcePoint" />
            <mxPoint x="700" y="585" as="targetPoint" />
          </mxGeometry>
        </mxCell>
        <mxCell id="0KHHT6T7kImk7eiQCbv7-106" value="" style="endArrow=classic;html=1;rounded=0;exitX=0;exitY=0;exitDx=120;exitDy=75;exitPerimeter=0;" edge="1" parent="1" source="0KHHT6T7kImk7eiQCbv7-92">
          <mxGeometry width="50" height="50" relative="1" as="geometry">
            <mxPoint x="380" y="700" as="sourcePoint" />
            <mxPoint x="700" y="600" as="targetPoint" />
            <Array as="points">
              <mxPoint x="700" y="735" />
            </Array>
          </mxGeometry>
        </mxCell>
        <mxCell id="0KHHT6T7kImk7eiQCbv7-107" value="" style="endArrow=classic;html=1;rounded=0;exitX=0;exitY=0;exitDx=120;exitDy=75;exitPerimeter=0;fillColor=#ffe6cc;strokeColor=#d79b00;" edge="1" parent="1" source="0KHHT6T7kImk7eiQCbv7-93">
          <mxGeometry width="50" height="50" relative="1" as="geometry">
            <mxPoint x="380" y="700" as="sourcePoint" />
            <mxPoint x="720" y="600" as="targetPoint" />
            <Array as="points">
              <mxPoint x="720" y="890" />
            </Array>
          </mxGeometry>
        </mxCell>
        <mxCell id="0KHHT6T7kImk7eiQCbv7-108" value="" style="endArrow=classic;html=1;rounded=0;exitX=0;exitY=0;exitDx=120;exitDy=75;exitPerimeter=0;" edge="1" parent="1" source="0KHHT6T7kImk7eiQCbv7-87">
          <mxGeometry width="50" height="50" relative="1" as="geometry">
            <mxPoint x="380" y="600" as="sourcePoint" />
            <mxPoint x="720" y="480" as="targetPoint" />
            <Array as="points">
              <mxPoint x="720" y="415" />
            </Array>
          </mxGeometry>
        </mxCell>
        <mxCell id="0KHHT6T7kImk7eiQCbv7-109" value="" style="shape=cube;whiteSpace=wrap;html=1;boundedLbl=1;backgroundOutline=1;darkOpacity=0.05;darkOpacity2=0.1;size=10;" vertex="1" parent="1">
          <mxGeometry x="690" y="490" width="60" height="80" as="geometry" />
        </mxCell>
        <mxCell id="0KHHT6T7kImk7eiQCbv7-110" value="" style="shape=cube;whiteSpace=wrap;html=1;boundedLbl=1;backgroundOutline=1;darkOpacity=0.05;darkOpacity2=0.1;size=10;" vertex="1" parent="1">
          <mxGeometry x="700" y="500" width="60" height="80" as="geometry" />
        </mxCell>
        <mxCell id="0KHHT6T7kImk7eiQCbv7-111" value="" style="shape=cube;whiteSpace=wrap;html=1;boundedLbl=1;backgroundOutline=1;darkOpacity=0.05;darkOpacity2=0.1;size=10;" vertex="1" parent="1">
          <mxGeometry x="710" y="510" width="60" height="80" as="geometry" />
        </mxCell>
        <mxCell id="0KHHT6T7kImk7eiQCbv7-112" value="" style="shape=cube;whiteSpace=wrap;html=1;boundedLbl=1;backgroundOutline=1;darkOpacity=0.05;darkOpacity2=0.1;size=10;" vertex="1" parent="1">
          <mxGeometry x="720" y="520" width="60" height="80" as="geometry" />
        </mxCell>
        <mxCell id="0KHHT6T7kImk7eiQCbv7-113" value="8C" style="text;html=1;align=center;verticalAlign=middle;whiteSpace=wrap;rounded=0;fontStyle=1" vertex="1" parent="1">
          <mxGeometry x="650" y="560" width="60" height="30" as="geometry" />
        </mxCell>
        <mxCell id="0KHHT6T7kImk7eiQCbv7-114" value="H2" style="text;html=1;align=center;verticalAlign=middle;whiteSpace=wrap;rounded=0;fontStyle=1" vertex="1" parent="1">
          <mxGeometry x="767" y="570" width="60" height="30" as="geometry" />
        </mxCell>
        <mxCell id="0KHHT6T7kImk7eiQCbv7-115" value="W2" style="text;html=1;align=center;verticalAlign=middle;whiteSpace=wrap;rounded=0;fontStyle=1" vertex="1" parent="1">
          <mxGeometry x="730" y="600" width="60" height="30" as="geometry" />
        </mxCell>
        <mxCell id="0KHHT6T7kImk7eiQCbv7-116" value="" style="endArrow=classic;html=1;rounded=0;exitX=1.007;exitY=0.465;exitDx=0;exitDy=0;exitPerimeter=0;" edge="1" parent="1" source="0KHHT6T7kImk7eiQCbv7-112">
          <mxGeometry width="50" height="50" relative="1" as="geometry">
            <mxPoint x="380" y="600" as="sourcePoint" />
            <mxPoint x="820" y="557" as="targetPoint" />
          </mxGeometry>
        </mxCell>
        <mxCell id="0KHHT6T7kImk7eiQCbv7-117" value="2C" style="text;html=1;align=center;verticalAlign=middle;whiteSpace=wrap;rounded=0;fontStyle=1" vertex="1" parent="1">
          <mxGeometry x="450" y="430" width="60" height="30" as="geometry" />
        </mxCell>
        <mxCell id="0KHHT6T7kImk7eiQCbv7-118" value="2C" style="text;html=1;align=center;verticalAlign=middle;whiteSpace=wrap;rounded=0;fontStyle=1" vertex="1" parent="1">
          <mxGeometry x="450" y="600" width="60" height="30" as="geometry" />
        </mxCell>
        <mxCell id="0KHHT6T7kImk7eiQCbv7-119" value="2C" style="text;html=1;align=center;verticalAlign=middle;whiteSpace=wrap;rounded=0;fontStyle=1" vertex="1" parent="1">
          <mxGeometry x="450" y="750" width="60" height="30" as="geometry" />
        </mxCell>
        <mxCell id="0KHHT6T7kImk7eiQCbv7-120" value="2C" style="text;html=1;align=center;verticalAlign=middle;whiteSpace=wrap;rounded=0;fontStyle=1" vertex="1" parent="1">
          <mxGeometry x="450" y="905" width="60" height="30" as="geometry" />
        </mxCell>
        <mxCell id="0KHHT6T7kImk7eiQCbv7-121" value="" style="endArrow=classic;html=1;rounded=0;exitX=1;exitY=1;exitDx=0;exitDy=0;entryX=0.5;entryY=0;entryDx=0;entryDy=0;" edge="1" parent="1" source="0KHHT6T7kImk7eiQCbv7-119" target="0KHHT6T7kImk7eiQCbv7-119">
          <mxGeometry width="50" height="50" relative="1" as="geometry">
            <mxPoint x="450" y="770" as="sourcePoint" />
            <mxPoint x="500" y="720" as="targetPoint" />
          </mxGeometry>
        </mxCell>
        <mxCell id="0KHHT6T7kImk7eiQCbv7-122" value="" style="endArrow=classic;html=1;rounded=0;exitX=1;exitY=1;exitDx=0;exitDy=0;entryX=1;entryY=1;entryDx=0;entryDy=0;entryPerimeter=0;" edge="1" parent="1" source="0KHHT6T7kImk7eiQCbv7-119" target="0KHHT6T7kImk7eiQCbv7-92">
          <mxGeometry width="50" height="50" relative="1" as="geometry">
            <mxPoint x="380" y="770" as="sourcePoint" />
            <mxPoint x="430" y="720" as="targetPoint" />
          </mxGeometry>
        </mxCell>
        <mxCell id="0KHHT6T7kImk7eiQCbv7-123" value="" style="endArrow=classic;html=1;rounded=0;entryX=0;entryY=0;entryDx=120;entryDy=30;entryPerimeter=0;" edge="1" parent="1" target="0KHHT6T7kImk7eiQCbv7-92">
          <mxGeometry width="50" height="50" relative="1" as="geometry">
            <mxPoint x="600" y="780" as="sourcePoint" />
            <mxPoint x="602" y="690" as="targetPoint" />
          </mxGeometry>
        </mxCell>
        <mxCell id="0KHHT6T7kImk7eiQCbv7-126" value="W2" style="text;html=1;align=center;verticalAlign=middle;whiteSpace=wrap;rounded=0;fontStyle=1" vertex="1" parent="1">
          <mxGeometry x="520" y="460" width="60" height="30" as="geometry" />
        </mxCell>
        <mxCell id="0KHHT6T7kImk7eiQCbv7-127" value="W2" style="text;html=1;align=center;verticalAlign=middle;whiteSpace=wrap;rounded=0;fontStyle=1" vertex="1" parent="1">
          <mxGeometry x="520" y="630" width="60" height="30" as="geometry" />
        </mxCell>
        <mxCell id="0KHHT6T7kImk7eiQCbv7-128" value="W2" style="text;html=1;align=center;verticalAlign=middle;whiteSpace=wrap;rounded=0;fontStyle=1" vertex="1" parent="1">
          <mxGeometry x="530" y="780" width="60" height="30" as="geometry" />
        </mxCell>
        <mxCell id="0KHHT6T7kImk7eiQCbv7-129" value="W2" style="text;html=1;align=center;verticalAlign=middle;whiteSpace=wrap;rounded=0;fontStyle=1" vertex="1" parent="1">
          <mxGeometry x="520" y="940" width="60" height="30" as="geometry" />
        </mxCell>
        <mxCell id="0KHHT6T7kImk7eiQCbv7-130" value="H2" style="text;html=1;align=center;verticalAlign=middle;whiteSpace=wrap;rounded=0;fontStyle=1" vertex="1" parent="1">
          <mxGeometry x="590" y="390" width="60" height="30" as="geometry" />
        </mxCell>
        <mxCell id="0KHHT6T7kImk7eiQCbv7-131" value="H2" style="text;html=1;align=center;verticalAlign=middle;whiteSpace=wrap;rounded=0;fontStyle=1" vertex="1" parent="1">
          <mxGeometry x="590" y="560" width="60" height="30" as="geometry" />
        </mxCell>
        <mxCell id="0KHHT6T7kImk7eiQCbv7-132" value="H2" style="text;html=1;align=center;verticalAlign=middle;whiteSpace=wrap;rounded=0;fontStyle=1" vertex="1" parent="1">
          <mxGeometry x="590" y="710" width="60" height="30" as="geometry" />
        </mxCell>
        <mxCell id="0KHHT6T7kImk7eiQCbv7-133" value="H2" style="text;html=1;align=center;verticalAlign=middle;whiteSpace=wrap;rounded=0;fontStyle=1" vertex="1" parent="1">
          <mxGeometry x="590" y="860" width="60" height="30" as="geometry" />
        </mxCell>
        <mxCell id="0KHHT6T7kImk7eiQCbv7-134" value="" style="endArrow=classic;html=1;rounded=0;entryX=0;entryY=0;entryDx=120;entryDy=30;entryPerimeter=0;" edge="1" parent="1">
          <mxGeometry width="50" height="50" relative="1" as="geometry">
            <mxPoint x="599" y="630" as="sourcePoint" />
            <mxPoint x="599" y="540" as="targetPoint" />
          </mxGeometry>
        </mxCell>
        <mxCell id="0KHHT6T7kImk7eiQCbv7-135" value="" style="endArrow=classic;html=1;rounded=0;entryX=0;entryY=0;entryDx=120;entryDy=30;entryPerimeter=0;" edge="1" parent="1">
          <mxGeometry width="50" height="50" relative="1" as="geometry">
            <mxPoint x="600" y="460" as="sourcePoint" />
            <mxPoint x="600" y="370" as="targetPoint" />
          </mxGeometry>
        </mxCell>
        <mxCell id="0KHHT6T7kImk7eiQCbv7-136" value="" style="endArrow=classic;html=1;rounded=0;entryX=0;entryY=0;entryDx=120;entryDy=30;entryPerimeter=0;" edge="1" parent="1">
          <mxGeometry width="50" height="50" relative="1" as="geometry">
            <mxPoint x="600" y="935" as="sourcePoint" />
            <mxPoint x="600" y="845" as="targetPoint" />
          </mxGeometry>
        </mxCell>
        <mxCell id="0KHHT6T7kImk7eiQCbv7-137" value="" style="endArrow=classic;html=1;rounded=0;exitX=1;exitY=1;exitDx=0;exitDy=0;entryX=1;entryY=1;entryDx=0;entryDy=0;entryPerimeter=0;" edge="1" parent="1">
          <mxGeometry width="50" height="50" relative="1" as="geometry">
            <mxPoint x="515" y="935" as="sourcePoint" />
            <mxPoint x="605" y="935" as="targetPoint" />
          </mxGeometry>
        </mxCell>
        <mxCell id="0KHHT6T7kImk7eiQCbv7-138" value="" style="endArrow=classic;html=1;rounded=0;exitX=1;exitY=1;exitDx=0;exitDy=0;entryX=1;entryY=1;entryDx=0;entryDy=0;entryPerimeter=0;" edge="1" parent="1">
          <mxGeometry width="50" height="50" relative="1" as="geometry">
            <mxPoint x="510" y="630" as="sourcePoint" />
            <mxPoint x="600" y="630" as="targetPoint" />
          </mxGeometry>
        </mxCell>
        <mxCell id="0KHHT6T7kImk7eiQCbv7-139" value="" style="endArrow=classic;html=1;rounded=0;exitX=1;exitY=1;exitDx=0;exitDy=0;entryX=1;entryY=1;entryDx=0;entryDy=0;entryPerimeter=0;" edge="1" parent="1">
          <mxGeometry width="50" height="50" relative="1" as="geometry">
            <mxPoint x="510" y="460" as="sourcePoint" />
            <mxPoint x="600" y="460" as="targetPoint" />
          </mxGeometry>
        </mxCell>
        <mxCell id="0KHHT6T7kImk7eiQCbv7-141" value="" style="endArrow=classic;html=1;rounded=0;entryX=0.5;entryY=0;entryDx=0;entryDy=0;" edge="1" parent="1" target="0KHHT6T7kImk7eiQCbv7-118">
          <mxGeometry width="50" height="50" relative="1" as="geometry">
            <mxPoint x="510" y="630" as="sourcePoint" />
            <mxPoint x="500" y="721" as="targetPoint" />
          </mxGeometry>
        </mxCell>
        <mxCell id="0KHHT6T7kImk7eiQCbv7-142" value="" style="endArrow=classic;html=1;rounded=0;exitX=1;exitY=1;exitDx=0;exitDy=0;entryX=0.5;entryY=0;entryDx=0;entryDy=0;" edge="1" parent="1">
          <mxGeometry width="50" height="50" relative="1" as="geometry">
            <mxPoint x="511" y="936" as="sourcePoint" />
            <mxPoint x="481" y="906" as="targetPoint" />
          </mxGeometry>
        </mxCell>
        <mxCell id="0KHHT6T7kImk7eiQCbv7-144" value="" style="endArrow=classic;html=1;rounded=0;exitX=1;exitY=1;exitDx=0;exitDy=0;entryX=0.5;entryY=0;entryDx=0;entryDy=0;" edge="1" parent="1">
          <mxGeometry width="50" height="50" relative="1" as="geometry">
            <mxPoint x="510" y="460" as="sourcePoint" />
            <mxPoint x="480" y="430" as="targetPoint" />
          </mxGeometry>
        </mxCell>
      </root>
    </mxGraphModel>
  </diagram>
</mxfile>
